<?xml version="1.0" encoding="UTF-8"?>
<svg width="24px" height="24px" viewBox="0 0 24 24" version="1.1" xmlns="http://www.w3.org/2000/svg">
    <g stroke="none" stroke-width="1" fill="none" fill-rule="evenodd">
        <circle cx="12" cy="12" r="3" stroke="currentColor" stroke-width="2"/>
        <circle cx="12" cy="12" r="1" fill="currentColor"/>
        <path d="M4,8 C5.1045695,8 6,7.1045695 6,6 C6,4.8954305 5.1045695,4 4,4 C2.8954305,4 2,4.8954305 2,6 C2,7.1045695 2.8954305,8 4,8 Z" fill="currentColor"/>
        <path d="M20,8 C21.1045695,8 22,7.1045695 22,6 C22,4.8954305 21.1045695,4 20,4 C18.8954305,4 18,4.8954305 18,6 C18,7.1045695 18.8954305,8 20,8 Z" fill="currentColor"/>
        <path d="M4,20 C5.1045695,20 6,19.1045695 6,18 C6,16.8954305 5.1045695,16 4,16 C2.8954305,16 2,16.8954305 2,18 C2,19.1045695 2.8954305,20 4,20 Z" fill="currentColor"/>
        <path d="M20,20 C21.1045695,20 22,19.1045695 22,18 C22,16.8954305 21.1045695,16 20,16 C18.8954305,16 18,16.8954305 18,18 C18,19.1045695 18.8954305,20 20,20 Z" fill="currentColor"/>
        <path d="M6,6 L9,9" stroke="currentColor" stroke-width="2" stroke-linecap="round"/>
        <path d="M18,6 L15,9" stroke="currentColor" stroke-width="2" stroke-linecap="round"/>
        <path d="M6,18 L9,15" stroke="currentColor" stroke-width="2" stroke-linecap="round"/>
        <path d="M18,18 L15,15" stroke="currentColor" stroke-width="2" stroke-linecap="round"/>
    </g>
</svg>
